<svg enable-background="new 0 0 64 64" version="1.1" viewBox="0 0 64 64" x="0px" xml:space="preserve" xmlns="http://www.w3.org/2000/svg" xmlns:xlink="http://www.w3.org/1999/xlink" y="0px">
    <g>
        <g>
            <g>
                <path d="M59,61H5c-2.757,0-5-2.243-5-5V23c0-2.757,2.243-5,5-5h54c2.757,0,5,2.243,5,5v33C64,58.757,61.757,61,59,61z M5,20     c-1.654,0-3,1.346-3,3v33c0,1.654,1.346,3,3,3h54c1.654,0,3-1.346,3-3V23c0-1.654-1.346-3-3-3H5z"/>
            </g>
            <g>
                <g>
                    <g>
                        <g>
                            <path d="M6,20c-0.553,0-1-0.447-1-1v-8c0-0.553,0.447-1,1-1s1,0.447,1,1v8C7,19.553,6.553,20,6,20z"/>
                        </g>
                        <g>
                            <path d="M58,20c-0.553,0-1-0.447-1-1v-4c0-0.553,0.447-1,1-1s1,0.447,1,1v4C59,19.553,58.553,20,58,20z"/>
                        </g>
                    </g>
                    <g>
                        <path d="M58,16H20c-0.553,0-1-0.447-1-1s0.447-1,1-1h38c0.553,0,1,0.447,1,1S58.553,16,58,16z"/>
                    </g>
                    <g>
                        <path d="M20.001,16c-0.305,0-0.604-0.138-0.801-0.4l-3-4c-0.332-0.441-0.242-1.068,0.2-1.399       c0.441-0.332,1.068-0.243,1.399,0.2l3,4c0.332,0.441,0.242,1.068-0.2,1.399C20.42,15.935,20.21,16,20.001,16z"/>
                    </g>
                    <g>
                        <path d="M17,12H6c-0.553,0-1-0.447-1-1s0.447-1,1-1h11c0.553,0,1,0.447,1,1S17.553,12,17,12z"/>
                    </g>
                    <g>
                        <path d="M58,13H17.75c-0.553,0-1-0.447-1-1s0.447-1,1-1H58c0.553,0,1,0.447,1,1S58.553,13,58,13z"/>
                    </g>
                    <g>
                        <path d="M58,16c-0.553,0-1-0.447-1-1v-3c0-0.553,0.447-1,1-1s1,0.447,1,1v3C59,15.553,58.553,16,58,16z"/>
                    </g>
                </g>
                <g>
                    <g>
                        <g>
                            <path d="M8,12c-0.553,0-1-0.447-1-1V4c0-0.553,0.447-1,1-1s1,0.447,1,1v7C9,11.553,8.553,12,8,12z"/>
                        </g>
                        <g>
                            <path d="M56,13c-0.553,0-1-0.447-1-1V8c0-0.553,0.447-1,1-1s1,0.447,1,1v4C57,12.553,56.553,13,56,13z"/>
                        </g>
                    </g>
                    <g>
                        <path d="M56,9H22c-0.553,0-1-0.447-1-1s0.447-1,1-1h34c0.553,0,1,0.447,1,1S56.553,9,56,9z"/>
                    </g>
                    <g>
                        <path d="M22.001,9c-0.305,0-0.604-0.138-0.801-0.4l-3-4c-0.332-0.441-0.242-1.068,0.2-1.399c0.44-0.332,1.068-0.243,1.399,0.2       l3,4c0.332,0.441,0.242,1.068-0.2,1.399C22.42,8.935,22.21,9,22.001,9z"/>
                    </g>
                    <g>
                        <path d="M19,5H8C7.447,5,7,4.553,7,4s0.447-1,1-1h11c0.553,0,1,0.447,1,1S19.553,5,19,5z"/>
                    </g>
                    <g>
                        <path d="M56,6H19.75c-0.553,0-1-0.447-1-1s0.447-1,1-1H56c0.553,0,1,0.447,1,1S56.553,6,56,6z"/>
                    </g>
                    <g>
                        <path d="M56,9c-0.553,0-1-0.447-1-1V5c0-0.553,0.447-1,1-1s1,0.447,1,1v3C57,8.553,56.553,9,56,9z"/>
                    </g>
                </g>
            </g>
            <g>
                <g>
                    <path d="M26,39c-0.553,0-1-0.447-1-1c0-0.552-0.448-1-1-1s-1,0.448-1,1c0,0.553-0.447,1-1,1s-1-0.447-1-1c0-1.654,1.346-3,3-3      s3,1.346,3,3C27,38.553,26.553,39,26,39z"/>
                </g>
                <g>
                    <path d="M42,39c-0.553,0-1-0.447-1-1c0-0.552-0.448-1-1-1s-1,0.448-1,1c0,0.553-0.447,1-1,1s-1-0.447-1-1c0-1.654,1.346-3,3-3      s3,1.346,3,3C43,38.553,42.553,39,42,39z"/>
                </g>
                <g>
                    <path d="M40,45c-0.553,0-1-0.447-1-1s0.447-1,1-1c0.552,0,1-0.448,1-1c0-0.553,0.447-1,1-1s1,0.447,1,1      C43,43.654,41.654,45,40,45z"/>
                </g>
                <g>
                    <path d="M24,45c-1.654,0-3-1.346-3-3c0-0.553,0.447-1,1-1s1,0.447,1,1c0,0.552,0.448,1,1,1c0.553,0,1,0.447,1,1S24.553,45,24,45      z"/>
                </g>
                <g>
                    <path d="M22,43c-0.553,0-1-0.447-1-1v-4c0-0.553,0.447-1,1-1s1,0.447,1,1v4C23,42.553,22.553,43,22,43z"/>
                </g>
                <g>
                    <path d="M42,43c-0.553,0-1-0.447-1-1v-4c0-0.553,0.447-1,1-1s1,0.447,1,1v4C43,42.553,42.553,43,42,43z"/>
                </g>
                <g>
                    <path d="M40,45H24c-0.553,0-1-0.447-1-1s0.447-1,1-1h16c0.553,0,1,0.447,1,1S40.553,45,40,45z"/>
                </g>
                <g>
                    <path d="M38,41H26c-0.553,0-1-0.447-1-1s0.447-1,1-1h12c0.553,0,1,0.447,1,1S38.553,41,38,41z"/>
                </g>
                <g>
                    <path d="M38,41c-0.553,0-1-0.447-1-1v-2c0-0.553,0.447-1,1-1s1,0.447,1,1v2C39,40.553,38.553,41,38,41z"/>
                </g>
                <g>
                    <path d="M26,41c-0.553,0-1-0.447-1-1v-2c0-0.553,0.447-1,1-1s1,0.447,1,1v2C27,40.553,26.553,41,26,41z"/>
                </g>
            </g>
        </g>
    </g>
    <!--<text fill="#000000" font-family="'Helvetica Neue', Helvetica, Arial-Unicode, Arial, Sans-serif" font-size="5px" font-weight="bold" x="0" y="79">Created by lastspark</text>
    <text fill="#000000" font-family="'Helvetica Neue', Helvetica, Arial-Unicode, Arial, Sans-serif" font-size="5px" font-weight="bold" x="0" y="84">from the Noun Project</text>-->
</svg>