<svg enable-background="new 0 0 100 100" version="1.1" viewBox="0 0 100 100" x="0px" xml:space="preserve" xmlns="http://www.w3.org/2000/svg" xmlns:xlink="http://www.w3.org/1999/xlink" y="0px">
    <g>
        <path d="M43.226,92.097H31.613c-0.802,0-1.452,0.65-1.452,1.452c0,0.802,0.65,1.452,1.452,1.452h11.613   c0.802,0,1.452-0.65,1.452-1.452C44.677,92.746,44.027,92.097,43.226,92.097z"/>
        <path d="M68.387,92.097H56.774c-0.802,0-1.452,0.65-1.452,1.452c0,0.802,0.65,1.452,1.452,1.452h11.613   c0.802,0,1.452-0.65,1.452-1.452C69.839,92.746,69.189,92.097,68.387,92.097z"/>
        <path d="M18.065,92.097H6.452C5.65,92.097,5,92.746,5,93.548C5,94.35,5.65,95,6.452,95h11.613c0.802,0,1.452-0.65,1.452-1.452   C19.516,92.746,18.866,92.097,18.065,92.097z"/>
        <path d="M43.226,63.064H31.613c-0.802,0-1.452,0.65-1.452,1.452c0,0.802,0.65,1.452,1.452,1.452h11.613   c0.802,0,1.452-0.65,1.452-1.452C44.677,63.714,44.027,63.064,43.226,63.064z"/>
        <path d="M68.387,63.064H56.774c-0.802,0-1.452,0.65-1.452,1.452c0,0.802,0.65,1.452,1.452,1.452h11.613   c0.802,0,1.452-0.65,1.452-1.452C69.839,63.714,69.189,63.064,68.387,63.064z"/>
        <path d="M43.226,77.581H31.613c-0.802,0-1.452,0.65-1.452,1.452c0,0.802,0.65,1.452,1.452,1.452h11.613   c0.802,0,1.452-0.65,1.452-1.452C44.677,78.23,44.027,77.581,43.226,77.581z"/>
        <path d="M68.387,77.581H56.774c-0.802,0-1.452,0.65-1.452,1.452c0,0.802,0.65,1.452,1.452,1.452h11.613   c0.802,0,1.452-0.65,1.452-1.452C69.839,78.23,69.189,77.581,68.387,77.581z"/>
        <path d="M18.065,77.581H6.452C5.65,77.581,5,78.23,5,79.032c0,0.802,0.65,1.452,1.452,1.452h11.613c0.802,0,1.452-0.65,1.452-1.452   C19.516,78.23,18.866,77.581,18.065,77.581z"/>
        <path d="M18.065,63.064H6.452C5.65,63.064,5,63.714,5,64.516c0,0.802,0.65,1.452,1.452,1.452h11.613   c0.802,0,1.452-0.65,1.452-1.452C19.516,63.714,18.866,63.064,18.065,63.064z"/>
        <path d="M43.226,48.548H31.613c-0.802,0-1.452,0.65-1.452,1.452c0,0.802,0.65,1.452,1.452,1.452h11.613   c0.802,0,1.452-0.65,1.452-1.452C44.677,49.198,44.027,48.548,43.226,48.548z"/>
        <path d="M68.387,48.548H56.774c-0.802,0-1.452,0.65-1.452,1.452c0,0.802,0.65,1.452,1.452,1.452h11.613   c0.802,0,1.452-0.65,1.452-1.452C69.839,49.198,69.189,48.548,68.387,48.548z"/>
        <path d="M68.387,34.032H56.774c-0.802,0-1.452,0.65-1.452,1.452c0,0.802,0.65,1.452,1.452,1.452h11.613   c0.802,0,1.452-0.65,1.452-1.452C69.839,34.682,69.189,34.032,68.387,34.032z"/>
        <path d="M43.226,19.516H31.613c-0.802,0-1.452,0.65-1.452,1.452c0,0.802,0.65,1.452,1.452,1.452h11.613   c0.802,0,1.452-0.65,1.452-1.452C44.677,20.166,44.027,19.516,43.226,19.516z"/>
        <path d="M43.226,34.032H31.613c-0.802,0-1.452,0.65-1.452,1.452c0,0.802,0.65,1.452,1.452,1.452h11.613   c0.802,0,1.452-0.65,1.452-1.452C44.677,34.682,44.027,34.032,43.226,34.032z"/>
        <path d="M43.226,5H31.613c-0.802,0-1.452,0.65-1.452,1.452c0,0.802,0.65,1.452,1.452,1.452h11.613c0.802,0,1.452-0.65,1.452-1.452   C44.677,5.65,44.027,5,43.226,5z"/>
        <path d="M93.548,92.097H81.935c-0.802,0-1.452,0.65-1.452,1.452c0,0.802,0.65,1.452,1.452,1.452h11.613   C94.35,95,95,94.35,95,93.548C95,92.746,94.35,92.097,93.548,92.097z"/>
        <path d="M93.548,63.064H81.935c-0.802,0-1.452,0.65-1.452,1.452c0,0.802,0.65,1.452,1.452,1.452h11.613   c0.802,0,1.452-0.65,1.452-1.452C95,63.714,94.35,63.064,93.548,63.064z"/>
        <path d="M93.548,77.581H81.935c-0.802,0-1.452,0.65-1.452,1.452c0,0.802,0.65,1.452,1.452,1.452h11.613   c0.802,0,1.452-0.65,1.452-1.452C95,78.23,94.35,77.581,93.548,77.581z"/>
        <path d="M93.548,48.548H81.935c-0.802,0-1.452,0.65-1.452,1.452c0,0.802,0.65,1.452,1.452,1.452h11.613   C94.35,51.451,95,50.802,95,50C95,49.198,94.35,48.548,93.548,48.548z"/>
        <path d="M93.548,34.032H81.935c-0.802,0-1.452,0.65-1.452,1.452c0,0.802,0.65,1.452,1.452,1.452h11.613   c0.802,0,1.452-0.65,1.452-1.452C95,34.682,94.35,34.032,93.548,34.032z"/>
        <path d="M93.548,19.516H81.935c-0.802,0-1.452,0.65-1.452,1.452c0,0.802,0.65,1.452,1.452,1.452h11.613   c0.802,0,1.452-0.65,1.452-1.452C95,20.166,94.35,19.516,93.548,19.516z"/>
    </g>
    <!--<text fill="#000000" font-family="'Helvetica Neue', Helvetica, Arial-Unicode, Arial, Sans-serif" font-size="5px" font-weight="bold" x="0" y="115">Created by Viktor Ostrovsky</text>
    <text fill="#000000" font-family="'Helvetica Neue', Helvetica, Arial-Unicode, Arial, Sans-serif" font-size="5px" font-weight="bold" x="0" y="120">from the Noun Project</text>-->
</svg>