<svg enable-background="new 0 0 64 64" version="1.1" viewBox="0 0 64 64" x="0px" xml:space="preserve" xmlns="http://www.w3.org/2000/svg" xmlns:graph="http://ns.adobe.com/Graphs/1.0/" xmlns:i="http://ns.adobe.com/AdobeIllustrator/10.0/" xmlns:x="http://ns.adobe.com/Extensibility/1.0/" xmlns:xlink="http://www.w3.org/1999/xlink" y="0px">
    <metadata>
        <sfw xmlns="http://ns.adobe.com/SaveForWeb/1.0/">
            <slices/>
            <sliceSourceBounds bottomLeftOrigin="true" height="16384" width="16389" x="-8165" y="-8160"/>
        </sfw>
    </metadata>
    <g>
        <path d="M56.907,14.218c-0.669-0.341-1.475-0.278-2.084,0.165L34,29.527V16c0-0.752-0.422-1.441-1.092-1.782   c-0.67-0.34-1.476-0.277-2.084,0.165L10,29.527V16c0-1.104-0.896-2-2-2s-2,0.896-2,2v32c0,1.104,0.896,2,2,2s2-0.896,2-2V34.473   l20.824,15.145C31.172,49.871,31.585,50,32,50c0.31,0,0.621-0.072,0.908-0.218C33.578,49.44,34,48.752,34,48V34.473l20.823,15.145   C55.172,49.871,55.585,50,56,50c0.31,0,0.621-0.072,0.907-0.218C57.578,49.44,58,48.752,58,48V16   C58,15.248,57.578,14.559,56.907,14.218z"/>
    </g>
    <!--<text fill="#000000" font-family="'Helvetica Neue', Helvetica, Arial-Unicode, Arial, Sans-serif" font-size="5px" font-weight="bold" x="0" y="79">Created by Ralf Schmitzer</text>
    <text fill="#000000" font-family="'Helvetica Neue', Helvetica, Arial-Unicode, Arial, Sans-serif" font-size="5px" font-weight="bold" x="0" y="84">from the Noun Project</text>-->
</svg>