<svg clip-rule="evenodd" fill-rule="evenodd" stroke-linejoin="round" stroke-miterlimit="1.41421" style="" version="1.1" viewBox="0 0 64 64" x="0px" xml:space="preserve" xmlns="http://www.w3.org/2000/svg" xmlns:xlink="http://www.w3.org/1999/xlink" y="0px">
    <rect fill="none" height="64" style="" width="64" x="0" y="0"/>
    <path d="M46.127,21.505c0.112,0.015 0.141,0.015 0.251,0.043c0.288,0.075 0.551,0.237 0.748,0.461c0.112,0.128 0.203,0.274 0.266,0.432c0.063,0.157 0.099,0.326 0.107,0.495c0.023,0.561 -0.278,1.1 -0.767,1.374c-0.149,0.082 -0.311,0.14 -0.478,0.168c-0.112,0.02 -0.141,0.017 -0.254,0.022l-28,0c-0.113,-0.005 -0.142,-0.002 -0.253,-0.022c-0.294,-0.05 -0.57,-0.189 -0.785,-0.395c-0.123,-0.118 -0.225,-0.256 -0.301,-0.408c-0.077,-0.151 -0.127,-0.316 -0.149,-0.484c-0.06,-0.468 0.11,-0.948 0.45,-1.274c0.092,-0.088 0.195,-0.164 0.306,-0.227c0.149,-0.082 0.311,-0.14 0.479,-0.168c0.111,-0.02 0.14,-0.017 0.253,-0.022l28,0c0.042,0.002 0.085,0.004 0.127,0.005Z" fill-rule="nonzero" style=""/>
    <path d="M46.127,30.505c0.112,0.015 0.141,0.015 0.251,0.043c0.288,0.075 0.551,0.237 0.748,0.461c0.112,0.128 0.203,0.274 0.266,0.432c0.209,0.52 0.104,1.129 -0.266,1.55c-0.112,0.128 -0.246,0.236 -0.394,0.319c-0.149,0.082 -0.311,0.14 -0.478,0.168c-0.112,0.02 -0.141,0.017 -0.254,0.022l-28,0c-0.113,-0.005 -0.142,-0.002 -0.253,-0.022c-0.168,-0.028 -0.33,-0.086 -0.479,-0.168c-0.411,-0.231 -0.696,-0.652 -0.756,-1.119c-0.016,-0.127 -0.016,-0.255 0,-0.382c0.022,-0.168 0.072,-0.333 0.149,-0.484c0.076,-0.152 0.178,-0.29 0.301,-0.408c0.215,-0.206 0.491,-0.345 0.785,-0.395c0.111,-0.02 0.14,-0.017 0.253,-0.022l28,0c0.042,0.002 0.085,0.004 0.127,0.005Z" fill-rule="nonzero" style=""/>
    <path d="M46.127,39.505c0.112,0.015 0.141,0.015 0.251,0.043c0.288,0.075 0.551,0.237 0.748,0.461c0.37,0.421 0.475,1.03 0.266,1.55c-0.063,0.158 -0.154,0.304 -0.266,0.432c-0.112,0.128 -0.246,0.236 -0.394,0.319c-0.149,0.082 -0.311,0.14 -0.478,0.168c-0.112,0.02 -0.141,0.017 -0.254,0.022l-28,0c-0.113,-0.005 -0.142,-0.002 -0.253,-0.022c-0.294,-0.05 -0.57,-0.189 -0.785,-0.395c-0.092,-0.088 -0.172,-0.188 -0.239,-0.297c-0.248,-0.401 -0.291,-0.908 -0.115,-1.345c0.064,-0.158 0.154,-0.304 0.266,-0.432c0.112,-0.128 0.246,-0.236 0.394,-0.319c0.149,-0.082 0.311,-0.14 0.479,-0.168c0.111,-0.02 0.14,-0.017 0.253,-0.022l28,0c0.042,0.002 0.085,0.004 0.127,0.005Z" fill-rule="nonzero" style=""/>
    <!--<text fill="#000000" font-family="'Helvetica Neue', Helvetica, Arial-Unicode, Arial, Sans-serif" font-size="5px" font-weight="bold" x="0" y="79">Created by Raphaël Buquet</text>
    <text fill="#000000" font-family="'Helvetica Neue', Helvetica, Arial-Unicode, Arial, Sans-serif" font-size="5px" font-weight="bold" x="0" y="84">from the Noun Project</text>-->
</svg>