<svg enable-background="new 0 0 100 100" version="1.1" viewBox="0 0 100 100" x="0px" xml:space="preserve" xmlns="http://www.w3.org/2000/svg" xmlns:xlink="http://www.w3.org/1999/xlink" y="0px">
    <g>
        <path d="M80.831,22.936c0.726,0.339,1.59,0.026,1.93-0.7c0.34-0.726,0.026-1.59-0.7-1.93l-20.019-9.361l-0.023-0.008l-0.155-0.054   l-0.123-0.038l-0.125-0.017l-0.165-0.017l-0.024-0.002l-0.095,0.009l-0.165,0.017l-0.132,0.034l-0.137,0.042l-0.127,0.06   l-0.123,0.067l-0.109,0.081l-0.112,0.092l-0.093,0.102l-0.09,0.109l-0.082,0.138l-0.051,0.085l-0.008,0.024l-0.053,0.153   l-0.039,0.124l-0.017,0.125l-0.017,0.166l-0.002,0.024v51.962c-2.869-4.063-7.591-6.724-12.944-6.724   c-8.753,0.001-15.846,7.094-15.847,15.847c0.001,8.752,7.094,15.846,15.847,15.847c8.752-0.001,15.845-7.093,15.847-15.844l0-0.002   V33.191l17.953,8.394c0.726,0.339,1.59,0.026,1.93-0.7c0.34-0.726,0.026-1.59-0.7-1.93l-19.183-8.969V14.541L80.831,22.936z    M56.184,82.497c-2.347,2.345-5.574,3.79-9.153,3.791c-3.579-0.001-6.806-1.447-9.153-3.791c-2.345-2.347-3.79-5.574-3.791-9.153   c0.001-3.579,1.447-6.806,3.791-9.153c2.347-2.345,5.574-3.79,9.153-3.791c3.579,0.001,6.806,1.447,9.153,3.791   c2.345,2.347,3.79,5.574,3.791,9.153C59.974,76.923,58.528,80.15,56.184,82.497z"/>
        <path d="M17.102,16.941c0,0.802,0.65,1.452,1.452,1.452H43.73c0.802,0,1.452-0.65,1.452-1.452c0-0.802-0.65-1.452-1.452-1.452   H18.554C17.752,15.489,17.102,16.139,17.102,16.941z"/>
        <path d="M18.554,31.339H43.73c0.802,0,1.452-0.65,1.452-1.452c0-0.802-0.65-1.452-1.452-1.452H18.554   c-0.802,0-1.452,0.65-1.452,1.452C17.102,30.689,17.752,31.339,18.554,31.339z"/>
        <path d="M18.554,44.286H43.73c0.802,0,1.452-0.65,1.452-1.452c0-0.802-0.65-1.452-1.452-1.452H18.554   c-0.802,0-1.452,0.65-1.452,1.452C17.102,43.636,17.752,44.286,18.554,44.286z"/>
    </g>
    <!--<text fill="#000000" font-family="'Helvetica Neue', Helvetica, Arial-Unicode, Arial, Sans-serif" font-size="5px" font-weight="bold" x="0" y="115">Created by Viktor Ostrovsky</text>
    <text fill="#000000" font-family="'Helvetica Neue', Helvetica, Arial-Unicode, Arial, Sans-serif" font-size="5px" font-weight="bold" x="0" y="120">from the Noun Project</text>-->
</svg>