<svg enable-background="new 0 0 100 100" version="1.1" viewBox="0 0 100 100" x="0px" xml:space="preserve" xmlns="http://www.w3.org/2000/svg" xmlns:xlink="http://www.w3.org/1999/xlink" y="0px">
    <g>
        <path d="M29.273,18.766l-14.25,13.535c-0.929,0.878-0.929,2.577,0,3.455l14.278,13.591   c0.901,0.934,2.591,0.962,3.492,0c0.873-0.934,0.789-2.633-0.197-3.483l-9.941-9.429h38.891c10.758,0,19.461,9.004,19.461,20.359   c0,11.383-8.703,20.387-19.461,20.387H16.657c-1.267-0.027-2.422,1.133-2.422,2.379c0,1.273,1.155,2.436,2.422,2.406h44.889   c13.406,0,24.219-11.297,24.219-25.172c0-13.847-10.813-25.145-24.219-25.145H22.627c0,0,6.646-6.314,9.969-9.458   c1.126-1.076,0.845-2.662,0.084-3.426C31.751,17.775,30.203,17.803,29.273,18.766L29.273,18.766z" fill="#000000"/>
    </g>
    <!--<text fill="#000000" font-family="'Helvetica Neue', Helvetica, Arial-Unicode, Arial, Sans-serif" font-size="5px" font-weight="bold" x="0" y="115">Created by romzicon</text>
    <text fill="#000000" font-family="'Helvetica Neue', Helvetica, Arial-Unicode, Arial, Sans-serif" font-size="5px" font-weight="bold" x="0" y="120">from the Noun Project</text>-->
</svg>