<svg enable-background="new 0 0 32 32" version="1.1" viewBox="0 0 32 32" x="0px" xml:space="preserve" xmlns="http://www.w3.org/2000/svg" xmlns:xlink="http://www.w3.org/1999/xlink" y="0px">
    <g display="none">
        <path d="M27.314,4.686c-6.249-6.249-16.379-6.248-22.627,0c-6.249,6.249-6.249,16.378,0,22.628   c6.248,6.248,16.379,6.249,22.627,0C33.563,21.065,33.562,10.935,27.314,4.686z M24.486,24.486   c-2.34,2.339-5.412,3.509-8.486,3.508V4.005c3.074,0.001,6.146,1.171,8.486,3.51C29.164,12.194,29.164,19.807,24.486,24.486z" display="inline"/>
    </g>
    <g display="none">
        <path d="M30.586,24.929h-2.828L14.729,11.9c0.781-0.782,0.781-2.047,0-2.827L6.244,0.587   c-0.781-0.781-2.047-0.782-2.83,0L0.586,3.415c-0.781,0.781-0.781,2.048,0,2.828l8.486,8.485c0.781,0.781,2.047,0.782,2.828,0l0,0   L24.93,27.757v2.828l4.242,1.414L32,29.171L30.586,24.929z" display="inline"/>
    </g>
    <g display="none">
        <g display="inline">
            <path clip-rule="evenodd" d="M28,10.168V9V8c0-2.762-5.373-5-12-5C9.373,3,4,5.238,4,8v1v1.168V11h24V10.168z    " fill-rule="evenodd"/>
            <path clip-rule="evenodd" d="M28,17H4c-1.106,0-2,0.895-2,2c0,1.105,0.895,2,2,2h24c1.105,0,2-0.895,2-2    C30,17.895,29.105,17,28,17z" fill-rule="evenodd"/>
            <rect clip-rule="evenodd" fill-rule="evenodd" height="2" width="24" x="4" y="13"/>
            <path clip-rule="evenodd" d="M4,27c0,1.105,5.373,2,12,2c6.627,0,12-0.895,12-2v-4H4V27z" fill-rule="evenodd"/>
        </g>
    </g>
    <g>
        <path clip-rule="evenodd" d="M0,8h2V2h6V0H0V8z M24,0v2h6v6h2V0H24z M30,30h-6v2h8v-8h-2V30z M2,24H0v8h8v-2H2   V24z M2,12H0v8h2V12z M30,20h2v-8h-2V20z M12,32h8v-2h-8V32z M12,2h8V0h-8V2z" fill-rule="evenodd"/>
    </g>
    <!--<text fill="#000000" font-family="'Helvetica Neue', Helvetica, Arial-Unicode, Arial, Sans-serif" font-size="5px" font-weight="bold" x="0" y="47">Created by Noe Araujo</text>
    <text fill="#000000" font-family="'Helvetica Neue', Helvetica, Arial-Unicode, Arial, Sans-serif" font-size="5px" font-weight="bold" x="0" y="52">from the Noun Project</text>-->
</svg>