<svg version="1.1" viewBox="0 0 100 100" x="0px" xmlns="http://www.w3.org/2000/svg" xmlns:cc="http://creativecommons.org/ns#" xmlns:dc="http://purl.org/dc/elements/1.1/" xmlns:inkscape="http://www.inkscape.org/namespaces/inkscape" xmlns:rdf="http://www.w3.org/1999/02/22-rdf-syntax-ns#" xmlns:sodipodi="http://sodipodi.sourceforge.net/DTD/sodipodi-0.dtd" xmlns:svg="http://www.w3.org/2000/svg" y="0px">
    <g transform="translate(0,-952.36218)">
        <path d="m 44,957.36216 c -3.2894,0 -6,2.7106 -6,6 l 0,5.09375 c -4.39361,1.55573 -8.30073,4.00918 -11.71875,7.03125 l -4.5625,-2.53125 c -2.87854,-1.59651 -6.56162,-0.53141 -8.15625,2.34375 l -5.8125,10.5 c -1.58853,2.86414 -0.57063,6.55724 2.3125,8.15624 l 4.53125,2.5 C 14.27501,998.3843 14,1000.3466 14,1002.3622 c 0,2.0133 0.27569,3.9486 0.59375,5.875 l -4.53125,2.5312 c -2.88313,1.5991 -3.90103,5.2921 -2.3125,8.1563 l 5.8125,10.5 c 1.59463,2.8751 5.27771,3.9402 8.15625,2.3437 l 4.5625,-2.5312 c 3.41487,3.0161 7.33122,5.4464 11.71875,7 l 0,5.125 c 0,3.2894 2.7106,6 6,6 l 12,0 c 3.2894,0 6,-2.7106 6,-6 l 0,-5.125 c 4.38753,-1.5536 8.30389,-3.9839 11.71875,-7 l 4.5625,2.5312 c 2.87854,1.5965 6.56162,0.5314 8.15625,-2.3437 l 5.8125,-10.5 c 1.58853,-2.8642 0.57063,-6.5572 -2.3125,-8.1563 l -4.53125,-2.5312 c 0.31806,-1.9264 0.59375,-3.8617 0.59375,-5.875 0,-2.0156 -0.27501,-3.9779 -0.59375,-5.9063 l 4.53125,-2.5 c 2.88313,-1.599 3.90103,-5.2921 2.3125,-8.15624 l -5.8125,-10.5 c -1.59463,-2.87516 -5.27771,-3.94026 -8.15625,-2.34375 l -4.5625,2.53125 C 70.30073,972.4651 66.39361,970.01164 62,968.45591 l 0,-5.09375 c 0,-3.2894 -2.7106,-6 -6,-6 l -12,0 z m 0,4 12,0 c 1.14262,0 2,0.85738 2,2 l 0,6.5 a 2.0002,2.0002 0 0 0 1.40625,1.90625 c 4.84645,1.48736 9.21202,4.0992 12.78125,7.53125 a 2.0002,2.0002 0 0 0 2.34375,0.3125 l 5.6875,-3.15625 c 0.99728,-0.55311 2.16376,-0.21941 2.71875,0.78125 L 88.75,987.7372 c 0.56109,1.0116 0.24269,2.1681 -0.75,2.7187 l -5.6875,3.1563 a 2.0002,2.0002 0 0 0 -1,2.1562 c 0.44551,2.1263 0.6875,4.3274 0.6875,6.5938 0,2.2663 -0.24199,4.4363 -0.6875,6.5625 a 2.0002,2.0002 0 0 0 1,2.1875 L 88,1014.2684 c 0.99269,0.5506 1.31109,1.7071 0.75,2.7188 l -5.8125,10.5 c -0.55499,1.0006 -1.72147,1.3343 -2.71875,0.7812 l -5.6875,-3.1562 a 2.0002,2.0002 0 0 0 -2.34375,0.2812 c -3.56924,3.4321 -7.93482,6.0439 -12.78125,7.5313 A 2.0002,2.0002 0 0 0 58,1034.8622 l 0,6.5 c 0,1.1426 -0.85738,2 -2,2 l -12,0 c -1.14262,0 -2,-0.8574 -2,-2 l 0,-6.5 a 2.0002,2.0002 0 0 0 -1.40625,-1.9375 c -4.84642,-1.4874 -9.21201,-4.0992 -12.78125,-7.5313 a 2.0002,2.0002 0 0 0 -2.34375,-0.2812 l -5.6875,3.1562 c -0.99728,0.5531 -2.16376,0.2194 -2.71875,-0.7812 l -5.8125,-10.5 c -0.56109,-1.0117 -0.24269,-2.1682 0.75,-2.7188 l 5.6875,-3.1562 a 2.0002,2.0002 0 0 0 1,-2.1875 C 18.24199,1006.7985 18,1004.6285 18,1002.3622 c 0,-2.2664 0.24199,-4.4675 0.6875,-6.5938 a 2.0002,2.0002 0 0 0 -1,-2.1562 L 12,990.4559 c -0.99269,-0.5506 -1.31109,-1.7071 -0.75,-2.7187 l 5.8125,-10.50004 c 0.55499,-1.00066 1.72147,-1.33436 2.71875,-0.78125 l 5.6875,3.15625 a 2.0002,2.0002 0 0 0 2.34375,-0.3125 c 3.56923,-3.43205 7.93481,-6.0439 12.78125,-7.53125 A 2.0002,2.0002 0 0 0 42,969.86216 l 0,-6.5 c 0,-1.14262 0.85738,-2 2,-2 z m 6,20 c -11.57429,0 -21,9.42564 -21,21.00004 0,11.5742 9.42572,21 21,21 11.57429,0 21,-9.4258 21,-21 0,-11.5744 -9.4257,-21.00004 -21,-21.00004 z m 0,4 c 9.41254,0 17,7.58734 17,17.00004 0,9.4125 -7.58745,17 -17,17 -9.41254,0 -17,-7.5875 -17,-17 0,-9.4127 7.58747,-17.00004 17,-17.00004 z" display="inline" fill="#000000" fill-opacity="1" marker="none" overflow="visible" stroke="none" style="text-indent:0;text-transform:none;direction:ltr;block-progression:tb;baseline-shift:baseline;color:#000000;enable-background:accumulate;" visibility="visible"/>
    </g>
    <!--<text fill="#000000" font-family="'Helvetica Neue', Helvetica, Arial-Unicode, Arial, Sans-serif" font-size="5px" font-weight="bold" x="0" y="115">Created by Aya Sofya</text>
    <text fill="#000000" font-family="'Helvetica Neue', Helvetica, Arial-Unicode, Arial, Sans-serif" font-size="5px" font-weight="bold" x="0" y="120">from the Noun Project</text>-->
</svg>