<svg version="1.1" viewBox="0 0 100 100" x="0px" xmlns="http://www.w3.org/2000/svg" xmlns:cc="http://creativecommons.org/ns#" xmlns:dc="http://purl.org/dc/elements/1.1/" xmlns:inkscape="http://www.inkscape.org/namespaces/inkscape" xmlns:rdf="http://www.w3.org/1999/02/22-rdf-syntax-ns#" xmlns:sodipodi="http://sodipodi.sourceforge.net/DTD/sodipodi-0.dtd" xmlns:svg="http://www.w3.org/2000/svg" y="0px">
    <g transform="translate(0,-952.36218)">
        <path d="m 50,964.36216 c -7.158,0 -14.3549,2.72997 -19.8125,8.1875 -4.0587,4.05867 -6.5192,9.0935 -7.5625,14.34375 C 12.0341,988.94795 4,998.19734 4,1009.3622 c 0,12.6669 10.333,23 23,23 l 11,0 a 3.0003,3.0003 0 1 0 0,-6 l -11,0 c -9.4242,0 -17,-7.5758 -17,-17 0,-8.8999 6.7685,-16.15049 15.4375,-16.93754 a 3.0003,3.0003 0 0 0 2.6875,-2.625 c 0.552,-4.75509 2.6561,-9.37488 6.3125,-13.03125 4.3056,-4.30547 9.9243,-6.40625 15.5625,-6.40625 5.6382,0 11.2215,2.09633 15.5312,6.40625 4.9804,4.98032 7.0879,11.74679 6.3126,18.21875 a 3.0003,3.0003 0 0 0 2.9687,3.375 l 1.1875,0 c 7.8079,0 14,6.19214 14,14.00004 0,7.8079 -6.1921,14 -14,14 l -14,0 a 3.0003,3.0003 0 1 0 0,6 l 14,0 c 11.0281,0 20,-8.9719 20,-20 0,-10.4082 -8.0182,-18.88114 -18.1875,-19.81254 0.047,-7.23903 -2.5242,-14.49301 -8.0313,-20 C 64.3284,967.09658 57.158,964.36216 50,964.36216 z m 0,36.00004 c -1.0002,0 -1.5291,0.3218 -2.0312,0.7812 l -11,10 c -1.2702,1.1788 -1.2479,3.0919 -0.1876,4.25 1.0604,1.1581 3.0866,1.2419 4.25,0.1875 l 5.9688,-5.4375 0,27.2188 c 0,1.6568 1.3429,3 3,3 1.6572,0 3,-1.3432 3,-3 l 0,-27.2188 5.9688,5.4375 c 1.1635,1.0544 3.1284,0.9115 4.25,-0.1875 1.1819,-1.1581 0.9654,-3.1841 -0.1876,-4.25 l -11,-10 c -0.5943,-0.5441 -1.031,-0.7812 -2.0312,-0.7812 z" display="inline" fill="#000000" fill-opacity="1" marker="none" overflow="visible" stroke="none" style="text-indent:0;text-transform:none;direction:ltr;block-progression:tb;baseline-shift:baseline;color:#000000;enable-background:accumulate;" visibility="visible"/>
    </g>
    <!--<text fill="#000000" font-family="'Helvetica Neue', Helvetica, Arial-Unicode, Arial, Sans-serif" font-size="5px" font-weight="bold" x="0" y="115">Created by Kimmi Studio</text>
    <text fill="#000000" font-family="'Helvetica Neue', Helvetica, Arial-Unicode, Arial, Sans-serif" font-size="5px" font-weight="bold" x="0" y="120">from the Noun Project</text>-->
</svg>