<svg enable-background="new 0 0 100 100" version="1.1" viewBox="0 0 100 100" x="0px" xml:space="preserve" xmlns="http://www.w3.org/2000/svg" xmlns:xlink="http://www.w3.org/1999/xlink" y="0px">
    <g>
        <path d="M20.849,66.205h15.656l21.36,19.04c0.428,0.382,1.036,0.476,1.56,0.241c0.523-0.235,0.858-0.751,0.858-1.325V15.839   c0-0.574-0.334-1.09-0.858-1.325c-0.523-0.235-1.131-0.141-1.56,0.241l-21.361,19.04H20.849c-0.382,0-0.756,0.155-1.026,0.425   c-0.27,0.27-0.425,0.644-0.425,1.026v29.507c0,0.382,0.155,0.756,0.425,1.026C20.092,66.05,20.466,66.205,20.849,66.205z    M22.3,36.698h14.757c0.354,0,0.702-0.133,0.966-0.368l19.356-17.253v61.846L38.023,63.67c-0.264-0.235-0.612-0.368-0.966-0.368   H22.3V36.698z"/>
        <path d="M72.571,64.706c0.572,0.562,1.491,0.554,2.053-0.017c3.694-3.757,5.98-8.964,5.98-14.689c0-5.725-2.286-10.933-5.98-14.689   c-0.562-0.572-1.481-0.58-2.053-0.018c-0.572,0.562-0.58,1.481-0.017,2.053v0C75.729,40.579,77.7,45.054,77.7,50   c0,4.946-1.971,9.421-5.147,12.654C71.991,63.225,71.999,64.144,72.571,64.706z"/>
    </g>
    <!--<text fill="#000000" font-family="'Helvetica Neue', Helvetica, Arial-Unicode, Arial, Sans-serif" font-size="5px" font-weight="bold" x="0" y="115">Created by Viktor Ostrovsky</text>
    <text fill="#000000" font-family="'Helvetica Neue', Helvetica, Arial-Unicode, Arial, Sans-serif" font-size="5px" font-weight="bold" x="0" y="120">from the Noun Project</text>-->
</svg>