<svg enable-background="new 0 0 100 100" version="1.1" viewBox="0 0 100 100" x="0px" xml:space="preserve" xmlns="http://www.w3.org/2000/svg" xmlns:xlink="http://www.w3.org/1999/xlink" y="0px">
    <g>
        <path d="M6.597,66.205h15.656l21.361,19.04c0.428,0.382,1.036,0.476,1.56,0.241c0.523-0.235,0.858-0.751,0.858-1.325V15.839   c0-0.574-0.334-1.09-0.858-1.325c-0.523-0.235-1.131-0.141-1.56,0.241l-21.36,19.04H6.597c-0.382,0-0.756,0.155-1.026,0.425   c-0.27,0.27-0.425,0.644-0.425,1.026v29.507c0,0.382,0.155,0.756,0.425,1.026C5.841,66.05,6.215,66.205,6.597,66.205z    M8.049,36.698l14.757,0c0.354,0,0.702-0.133,0.966-0.368l19.356-17.253v61.846L23.772,63.67c-0.264-0.235-0.612-0.368-0.966-0.368   H8.049V36.698z"/>
        <path d="M58.302,62.654c-0.562,0.572-0.554,1.491,0.018,2.053c0.572,0.562,1.491,0.554,2.053-0.018   c3.694-3.757,5.98-8.964,5.979-14.689c0-5.725-2.286-10.933-5.979-14.689c-0.562-0.572-1.481-0.58-2.053-0.017   c-0.572,0.562-0.58,1.481-0.017,2.053l0,0c3.176,3.232,5.146,7.708,5.147,12.654C63.448,54.946,61.478,59.421,58.302,62.654z"/>
        <path d="M68.372,72.899c-0.562,0.572-0.554,1.491,0.018,2.053c0.572,0.562,1.491,0.554,2.053-0.018   C76.716,68.553,80.595,59.73,80.595,50c0.001-9.73-3.878-18.553-10.152-24.934c-0.562-0.572-1.481-0.58-2.053-0.018   c-0.572,0.562-0.58,1.481-0.018,2.053l0,0C74.13,32.96,77.691,41.047,77.691,50C77.691,58.953,74.13,67.04,68.372,72.899z"/>
        <path d="M78.444,16.857C86.798,25.342,91.95,37.041,91.951,50c-0.001,12.959-5.153,24.658-13.507,33.143   c-0.563,0.571-0.556,1.49,0.016,2.053c0.571,0.563,1.49,0.556,2.053-0.016C89.384,76.174,94.855,63.736,94.854,50   c0.001-13.736-5.47-26.174-14.342-35.18c-0.563-0.571-1.482-0.578-2.053-0.016C77.888,15.367,77.881,16.286,78.444,16.857   L78.444,16.857z"/>
    </g>
    <!--<text fill="#000000" font-family="'Helvetica Neue', Helvetica, Arial-Unicode, Arial, Sans-serif" font-size="5px" font-weight="bold" x="0" y="115">Created by Viktor Ostrovsky</text>
    <text fill="#000000" font-family="'Helvetica Neue', Helvetica, Arial-Unicode, Arial, Sans-serif" font-size="5px" font-weight="bold" x="0" y="120">from the Noun Project</text>-->
</svg>