<svg enable-background="new 0 0 100 100" version="1.1" viewBox="0 0 100 100" x="0px" xml:space="preserve" xmlns="http://www.w3.org/2000/svg" xmlns:xlink="http://www.w3.org/1999/xlink" y="0px">
    <g>
        <path d="M50,94.998C74.852,94.997,94.997,74.852,94.998,50C94.997,25.148,74.852,5.003,50,5.002   C25.148,5.003,5.003,25.148,5.002,50C5.003,74.852,25.148,94.997,50,94.998z M20.234,20.234C27.857,12.614,38.371,7.906,50,7.905   c11.629,0.001,22.143,4.709,29.766,12.329C87.386,27.857,92.094,38.371,92.095,50c-0.001,11.629-4.709,22.143-12.329,29.766   C72.143,87.386,61.629,92.094,50,92.095c-11.629-0.001-22.143-4.709-29.766-12.329C12.614,72.143,7.906,61.629,7.905,50   C7.906,38.371,12.614,27.857,20.234,20.234z"/>
        <path d="M46.132,59.411c1.259,0.516,2.568,0.763,3.854,0.763c4,0.002,7.79-2.378,9.404-6.306c0.517-1.259,0.763-2.568,0.763-3.854   c0.002-4-2.378-7.79-6.306-9.404c-1.258-0.517-2.568-0.763-3.854-0.763c-4-0.002-7.79,2.378-9.404,6.306   c-0.517,1.258-0.763,2.568-0.763,3.854C39.824,54.007,42.204,57.797,46.132,59.411z M43.275,47.256   c1.15-2.808,3.861-4.503,6.718-4.505c0.917,0,1.846,0.174,2.752,0.546c2.808,1.15,4.503,3.861,4.505,6.718   c0,0.917-0.174,1.847-0.545,2.752c-1.15,2.807-3.861,4.503-6.718,4.505c-0.917,0-1.847-0.174-2.752-0.545   c-2.808-1.15-4.503-3.861-4.505-6.718C42.729,49.091,42.903,48.161,43.275,47.256L43.275,47.256z"/>
        <path d="M28.665,54.454c0.594,2.706,1.67,5.28,3.179,7.604c0.437,0.672,1.335,0.864,2.008,0.427   c0.672-0.437,0.864-1.335,0.427-2.008c-1.319-2.032-2.259-4.28-2.779-6.646c-0.172-0.783-0.946-1.278-1.729-1.106   C28.989,52.897,28.493,53.671,28.665,54.454L28.665,54.454z"/>
        <path d="M65.72,39.523c1.319,2.032,2.259,4.279,2.779,6.645c0.172,0.783,0.946,1.278,1.729,1.107   c0.783-0.172,1.278-0.946,1.107-1.729c-0.594-2.707-1.67-5.28-3.179-7.604c-0.437-0.672-1.336-0.864-2.008-0.427   C65.475,37.952,65.284,38.851,65.72,39.523L65.72,39.523z"/>
        <path d="M23.244,69.869c0.49,0.635,1.401,0.752,2.036,0.262c0.635-0.49,0.752-1.401,0.262-2.036   c-3.002-3.889-4.942-8.528-5.601-13.396c-0.108-0.794-0.839-1.351-1.633-1.243c-0.794,0.108-1.351,0.839-1.243,1.634l0,0   C17.793,60.464,19.93,65.575,23.244,69.869z"/>
        <path d="M74.448,31.892c2.957,3.918,4.902,8.568,5.613,13.424c0.116,0.793,0.854,1.342,1.647,1.226   c0.793-0.116,1.342-0.854,1.226-1.647c-0.784-5.343-2.916-10.442-6.168-14.752c-0.483-0.64-1.393-0.767-2.033-0.284   C74.092,30.342,73.965,31.252,74.448,31.892L74.448,31.892z"/>
    </g>
    <!--<text fill="#000000" font-family="'Helvetica Neue', Helvetica, Arial-Unicode, Arial, Sans-serif" font-size="5px" font-weight="bold" x="0" y="115">Created by Viktor Ostrovsky</text>
    <text fill="#000000" font-family="'Helvetica Neue', Helvetica, Arial-Unicode, Arial, Sans-serif" font-size="5px" font-weight="bold" x="0" y="120">from the Noun Project</text>-->
</svg>