<svg enable-background="new 0 0 100 100" version="1.1" viewBox="0 0 100 100" x="0px" xml:space="preserve" xmlns="http://www.w3.org/2000/svg" xmlns:xlink="http://www.w3.org/1999/xlink" y="0px">
    <g>
        <path d="M31.009,66.205h15.656l21.36,19.04c0.428,0.382,1.036,0.476,1.56,0.241s0.858-0.751,0.858-1.325V15.839   c0-0.574-0.334-1.09-0.858-1.325c-0.523-0.235-1.131-0.141-1.56,0.241l-21.361,19.04H31.009c-0.382,0-0.756,0.155-1.026,0.425   c-0.27,0.27-0.425,0.644-0.425,1.026v29.507c0,0.382,0.155,0.756,0.425,1.026C30.253,66.05,30.627,66.205,31.009,66.205z    M32.46,36.698l14.757,0c0.354,0,0.702-0.133,0.966-0.368L67.54,19.077v61.846L48.184,63.67c-0.264-0.235-0.612-0.368-0.966-0.368   H32.46V36.698z"/>
    </g>
    <!--<text fill="#000000" font-family="'Helvetica Neue', Helvetica, Arial-Unicode, Arial, Sans-serif" font-size="5px" font-weight="bold" x="0" y="115">Created by Viktor Ostrovsky</text>
    <text fill="#000000" font-family="'Helvetica Neue', Helvetica, Arial-Unicode, Arial, Sans-serif" font-size="5px" font-weight="bold" x="0" y="120">from the Noun Project</text>-->
</svg>