<svg enable-background="new 0 0 100 100" version="1.1" viewBox="0 0 100 125" x="0px" xml:space="preserve" xmlns="http://www.w3.org/2000/svg" xmlns:xlink="http://www.w3.org/1999/xlink" y="0px">
    <g>
        <path d="M6.53,89.192h11.612H93.47c0.382,0,0.756-0.155,1.026-0.425c0.27-0.27,0.425-0.644,0.425-1.026V12.26   c0-0.382-0.155-0.756-0.425-1.026s-0.644-0.425-1.026-0.425H18.142H6.53c-0.382,0-0.756,0.155-1.026,0.425   c-0.27,0.27-0.425,0.644-0.425,1.026v75.481c0,0.382,0.155,0.756,0.425,1.026S6.148,89.192,6.53,89.192z M92.019,86.289H19.594   l0-72.578h72.425L92.019,86.289z M7.981,13.711h8.709v72.578H7.981V13.711z"/>
        <path d="M55.806,77.58C71.039,77.579,83.385,65.232,83.386,50c-0.001-15.232-12.347-27.579-27.579-27.58   C40.574,22.421,28.228,34.768,28.227,50C28.228,65.232,40.574,77.579,55.806,77.58z M38.357,32.551   c4.47-4.468,10.63-7.227,17.449-7.228c6.819,0.001,12.979,2.76,17.449,7.228c4.468,4.47,7.227,10.63,7.228,17.449   c-0.001,6.819-2.76,12.979-7.228,17.449c-4.47,4.468-10.63,7.227-17.449,7.228c-6.819-0.001-12.979-2.76-17.449-7.228   C33.89,62.979,31.131,56.819,31.13,50C31.131,43.181,33.89,37.021,38.357,32.551z"/>
        <path d="M54.697,52.692c0.358,0.147,0.734,0.218,1.102,0.218c1.143,0.002,2.223-0.68,2.686-1.801   c0.147-0.358,0.218-0.734,0.218-1.102c0.002-1.143-0.68-2.224-1.802-2.686c-0.356-0.146-0.732-0.218-1.101-0.218   c-1.142-0.002-2.224,0.679-2.686,1.801h0l0,0l-0.001,0.001l0,0c-0.146,0.356-0.218,0.732-0.218,1.1   C52.894,51.148,53.577,52.23,54.697,52.692z"/>
    </g>
    <!-- <text fill="#000000" font-family="'Helvetica Neue', Helvetica, Arial-Unicode, Arial, Sans-serif" font-size="5px" font-weight="bold" x="0" y="115">Created by Viktor Ostrovsky</text> -->
    <!-- <text fill="#000000" font-family="'Helvetica Neue', Helvetica, Arial-Unicode, Arial, Sans-serif" font-size="5px" font-weight="bold" x="0" y="120">from the Noun Project</text> -->
</svg>