<svg data-name="Layer 1" viewBox="0 0 32 40" x="0px" xmlns="http://www.w3.org/2000/svg" y="0px">
    <title>Create, New File, Paste, Import, New Document</title>
    <path d="M22,32a7,7,0,1,1,7-7A7,7,0,0,1,22,32Zm0-12a5,5,0,1,0,5,5A5,5,0,0,0,22,20Z"/>
    <path d="M24,26H20a1,1,0,0,1,0-2h4a1,1,0,0,1,0,2Z"/>
    <path d="M22,28a1,1,0,0,1-1-1V23a1,1,0,0,1,2,0v4A1,1,0,0,1,22,28Z"/>
    <path d="M24,8H20a3,3,0,0,1-3-3V1A1,1,0,0,1,18.71.29l6,6A1,1,0,0,1,24,8ZM19,3.41V5a1,1,0,0,0,1,1h1.59Z"/>
    <path d="M17.53,30H6a3,3,0,0,1-3-3V3A3,3,0,0,1,6,0H18a1,1,0,0,1,.71.29l6,6A1,1,0,0,1,25,7V19.34a1,1,0,1,1-2,0V7.41L17.59,2H6A1,1,0,0,0,5,3V27a1,1,0,0,0,1,1H17.53a1,1,0,0,1,0,2Z"/>
    <!--<text fill="#000000" font-family="'Helvetica Neue', Helvetica, Arial-Unicode, Arial, Sans-serif" font-size="5px" font-weight="bold" x="0" y="47">Created by Omar Safaa</text>
    <text fill="#000000" font-family="'Helvetica Neue', Helvetica, Arial-Unicode, Arial, Sans-serif" font-size="5px" font-weight="bold" x="0" y="52">from the Noun Project</text>-->
</svg>