<svg version="1.1" viewBox="0 0 100 125" x="0px" xmlns="http://www.w3.org/2000/svg" xmlns:cc="http://creativecommons.org/ns#" xmlns:dc="http://purl.org/dc/elements/1.1/" xmlns:inkscape="http://www.inkscape.org/namespaces/inkscape" xmlns:rdf="http://www.w3.org/1999/02/22-rdf-syntax-ns#" xmlns:sodipodi="http://sodipodi.sourceforge.net/DTD/sodipodi-0.dtd" xmlns:svg="http://www.w3.org/2000/svg" y="0px">
    <g transform="translate(0,-952.36218)">
        <path d="m 18.781431,1046.3555 c -0.447201,-0.1001 -0.792283,-0.5419 -0.781299,-1 l 0,-61.5583 c 0.01,-0.53568 0.153815,-0.69413 0.437492,-0.99992 l 24.593811,-23.99836 c 0.297815,-0.2808 0.580393,-0.44004 0.875019,-0.43749 l 37.093677,0 c 0.523594,0 0.999921,0.4764 0.999992,0.99996 l 0,85.99411 c 0,0.5236 -0.476398,0.9999 -0.999992,1 l -62.000007,0 c -0.07299,0.01 -0.146091,0.01 -0.218693,0 z m 1.218721,-1.9999 59.999986,0 0,-83.99429 -35.125014,0 0,23.27967 c 0,0.52352 -0.476398,0.99985 -0.999993,0.99992 l -23.874979,0 z m 1.437484,-61.71458 21.437503,0 0,-20.9048 z" display="inline" fill="#000000" fill-opacity="1" fill-rule="evenodd" marker="none" overflow="visible" stroke="none" style="text-indent:0;text-transform:none;direction:ltr;block-progression:tb;baseline-shift:baseline;color:#000000;enable-background:accumulate;" visibility="visible"/>
    </g>
    <!--<text fill="#000000" font-family="'Helvetica Neue', Helvetica, Arial-Unicode, Arial, Sans-serif" font-size="5px" font-weight="bold" x="0" y="115">Created by Royyan Razka</text>
    <text fill="#000000" font-family="'Helvetica Neue', Helvetica, Arial-Unicode, Arial, Sans-serif" font-size="5px" font-weight="bold" x="0" y="120">from the Noun Project</text>-->
</svg>