<svg enable-background="new 0 0 24 24" version="1.1" viewBox="0 0 24 30" x="0px" xml:space="preserve" xmlns="http://www.w3.org/2000/svg" xmlns:xlink="http://www.w3.org/1999/xlink" y="0px">
    <path d="M20.285,21.747h1.37c1.349,0,2.194-0.716,2.313-1.949c0.011-0.037,0.017-0.075,0.017-0.113V7.512  c0-0.931-0.637-2.017-2.429-2.017L18.72,5.494c-2.447,0-4.892-0.001-7.337,0.003l-1.375-2.31c-0.434-0.623-1.022-0.927-1.8-0.929  c-1.976-0.007-3.95-0.012-5.926,0.002c-1.793,0-2.268,1.33-2.268,2.033V19.73c0,0.021,0.002,0.042,0.005,0.062  c0.04,0.458,0.332,1.955,2.407,1.955l2.916,0.001c1.384,0,4.434,0,7.489,0C15.841,21.749,18.855,21.749,20.285,21.747z M2.286,3.061  c1.973-0.014,3.945-0.01,5.92-0.002C8.724,3.06,9.067,3.235,9.336,3.621l1.115,1.875H2.416c-0.617,0-1.174,0.24-1.6,0.624V4.294  C0.816,4.167,0.857,3.061,2.286,3.061z M2.427,20.947c-1.243,0-1.562-0.666-1.61-1.225c0-0.005-0.001-0.01-0.001-0.016V7.896  c0-0.882,0.718-1.6,1.6-1.6h8.616c0.023,0,0.044-0.009,0.066-0.013c0.02,0.003,0.037,0.015,0.058,0.015h0.001  c2.521-0.005,5.044-0.006,7.563-0.003l2.837,0c1.47,0,1.628,0.851,1.628,1.217v12.149c-0.002,0.017-0.004,0.032-0.005,0.041  c-0.085,0.838-0.583,1.246-1.524,1.246h-0.506c-0.011-0.001-0.022-0.001-0.034-0.001c-0.085,0-0.364,0.001-0.813,0.001h-2.898  c-0.011,0-0.021,0-0.031,0.001c-3.967,0.002-9.925,0-12.028,0L2.427,20.947z"/>
    <!--<text fill="#000000" font-family="'Helvetica Neue', Helvetica, Arial-Unicode, Arial, Sans-serif" font-size="5px" font-weight="bold" x="0" y="39">Created by Atif Arshad</text>
    <text fill="#000000" font-family="'Helvetica Neue', Helvetica, Arial-Unicode, Arial, Sans-serif" font-size="5px" font-weight="bold" x="0" y="44">from the Noun Project</text>-->
</svg>