<svg enable-background="new 0 0 64 64" version="1.1" viewBox="0 0 64 80" x="0px" xml:space="preserve" xmlns="http://www.w3.org/2000/svg" xmlns:graph="http://ns.adobe.com/Graphs/1.0/" xmlns:i="http://ns.adobe.com/AdobeIllustrator/10.0/" xmlns:x="http://ns.adobe.com/Extensibility/1.0/" xmlns:xlink="http://www.w3.org/1999/xlink" y="0px">
    <metadata>
        <sfw xmlns="http://ns.adobe.com/SaveForWeb/1.0/">
            <slices/>
            <sliceSourceBounds bottomLeftOrigin="true" height="16384" width="16389" x="-8165" y="-8160"/>
        </sfw>
    </metadata>
    <g>
        <g>
            <path d="M28,6H14c-1.104,0-2,0.896-2,2v48c0,1.104,0.896,2,2,2h14c1.104,0,2-0.896,2-2V8C30,6.896,29.104,6,28,6z"/>
            <path d="M50,6H36c-1.104,0-2,0.896-2,2v48c0,1.104,0.896,2,2,2h14c1.104,0,2-0.896,2-2V8C52,6.896,51.104,6,50,6z"/>
        </g>
    </g>
    <!--<text fill="#000000" font-family="'Helvetica Neue', Helvetica, Arial-Unicode, Arial, Sans-serif" font-size="5px" font-weight="bold" x="0" y="79">Created by Ralf Schmitzer</text>
    <text fill="#000000" font-family="'Helvetica Neue', Helvetica, Arial-Unicode, Arial, Sans-serif" font-size="5px" font-weight="bold" x="0" y="84">from the Noun Project</text>-->
</svg>