<svg enable-background="new 0 0 64 64" version="1.1" viewBox="0 0 64 80" x="0px" xml:space="preserve" xmlns="http://www.w3.org/2000/svg" xmlns:graph="http://ns.adobe.com/Graphs/1.0/" xmlns:i="http://ns.adobe.com/AdobeIllustrator/10.0/" xmlns:x="http://ns.adobe.com/Extensibility/1.0/" xmlns:xlink="http://www.w3.org/1999/xlink" y="0px">
    <metadata>
        <sfw xmlns="http://ns.adobe.com/SaveForWeb/1.0/">
            <slices/>
            <sliceSourceBounds bottomLeftOrigin="true" height="16384" width="16389" x="-8165" y="-8160"/>
        </sfw>
    </metadata>
    <g>
        <g>
            <path d="M44.101,24h1.086l-2.523,2.61c-0.768,0.794-0.747,2.06,0.047,2.828C43.099,29.813,43.6,30,44.101,30    c0.522,0,1.045-0.204,1.438-0.61l5.501-5.689C51.613,23.35,52,22.722,52,22c0-0.019-0.005-0.037-0.006-0.056    c0.012-0.527-0.179-1.057-0.58-1.458l-5.899-5.899c-0.781-0.781-2.047-0.781-2.828,0c-0.781,0.781-0.781,2.047,0,2.828L45.272,20    h-1.172c-6.948,0-11.828,5.965-16.548,11.733C23.233,37.013,19.153,42,14.101,42c-1.104,0-2,0.896-2,2s0.896,2,2,2    c6.948,0,11.828-5.965,16.548-11.733C34.968,28.987,39.049,24,44.101,24z"/>
            <path d="M51.041,40.3l-5.503-5.69c-0.769-0.794-2.034-0.815-2.828-0.047c-0.794,0.768-0.814,2.034-0.047,2.828L45.187,40h-1.086    c-2.804,0-5.5-1.486-8.742-4.819c-0.77-0.793-2.037-0.809-2.828-0.039c-0.792,0.771-0.809,2.036-0.039,2.828    C35.01,40.559,38.952,44,44.101,44h1.172l-2.586,2.586c-0.781,0.781-0.781,2.047,0,2.828C43.077,49.805,43.589,50,44.101,50    s1.023-0.195,1.414-0.586l5.899-5.899c0.401-0.401,0.592-0.932,0.58-1.459C51.995,42.037,52,42.02,52,42    C52,41.278,51.614,40.651,51.041,40.3z"/>
            <path d="M14.101,22c0.506,0,1.014,0.05,1.512,0.149c2.572,0.509,5.148,2.32,8.354,5.873c0.395,0.438,0.939,0.66,1.485,0.66    c0.478,0,0.957-0.17,1.339-0.515c0.82-0.74,0.885-2.005,0.145-2.825c-2.573-2.851-6.097-6.236-10.546-7.116    C15.638,18.076,14.868,18,14.101,18c-1.104,0-2,0.896-2,2S12.996,22,14.101,22z"/>
        </g>
    </g>
    <!--<text fill="#000000" font-family="'Helvetica Neue', Helvetica, Arial-Unicode, Arial, Sans-serif" font-size="5px" font-weight="bold" x="0" y="79">Created by Ralf Schmitzer</text>
    <text fill="#000000" font-family="'Helvetica Neue', Helvetica, Arial-Unicode, Arial, Sans-serif" font-size="5px" font-weight="bold" x="0" y="84">from the Noun Project</text>-->
</svg>