<svg data-name="图层 1" viewBox="0 0 44 55" x="0px" xmlns="http://www.w3.org/2000/svg" y="0px">
    <title>叉</title>
    <path d="M25.11,22l9.34-9.33a1.11,1.11,0,0,0,0-1.56L32.89,9.55a1.11,1.11,0,0,0-1.56,0L22,18.89,12.67,9.55a1.11,1.11,0,0,0-1.56,0L9.55,11.11a1.11,1.11,0,0,0,0,1.56L18.89,22,9.55,31.33a1.11,1.11,0,0,0,0,1.56l1.56,1.56a1.11,1.11,0,0,0,1.56,0L22,25.11l9.33,9.34a1.11,1.11,0,0,0,1.56,0l1.56-1.56a1.11,1.11,0,0,0,0-1.56Z"/>
    <!--<text fill="#000000" font-family="'Helvetica Neue', Helvetica, Arial-Unicode, Arial, Sans-serif" font-size="5px" font-weight="bold" x="0" y="59">Created by Fengquan Li</text>
    <text fill="#000000" font-family="'Helvetica Neue', Helvetica, Arial-Unicode, Arial, Sans-serif" font-size="5px" font-weight="bold" x="0" y="64">from the Noun Project</text>-->
</svg>