<svg enable-background="new 0 0 96 96" version="1.1" viewBox="0 0 96 120" x="0px" xml:space="preserve" xmlns="http://www.w3.org/2000/svg" xmlns:xlink="http://www.w3.org/1999/xlink" y="0px">
    <g>
        <path d="M68.459,30.859c-0.827,0-1.5,0.673-1.5,1.5v18.426c0,6.471-6.422,12.085-15.271,13.35   c-2.448,0.354-4.917,0.354-7.379,0.001c-8.847-1.264-15.268-6.879-15.268-13.351V32.359c0-0.827-0.673-1.5-1.5-1.5   s-1.5,0.673-1.5,1.5v18.426c0,7.587,6.912,14.253,16.556,16.095V88c0,0.827,0.673,1.5,1.5,1.5h7.805c0.827,0,1.5-0.673,1.5-1.5   V66.878c9.645-1.843,16.558-8.508,16.558-16.093v-18.43C69.957,31.53,69.284,30.859,68.459,30.859z M50.4,86.5h-4.804V67.3   c1.608,0.136,3.2,0.136,4.804-0.001V86.5z"/>
        <path d="M47.999,62.282c8.985,0,16.024-4.319,16.024-9.833V16.334c0-5.514-7.039-9.834-16.024-9.834   c-8.986,0-16.025,4.32-16.025,9.834v36.115C31.974,57.963,39.013,62.282,47.999,62.282z M34.974,49.128h14.978   c0.827,0,1.5-0.673,1.5-1.5s-0.673-1.5-1.5-1.5H34.974v-6.325h14.978c0.827,0,1.5-0.673,1.5-1.5s-0.673-1.5-1.5-1.5H34.974v-6.324   h14.978c0.827,0,1.5-0.673,1.5-1.5s-0.673-1.5-1.5-1.5H34.974v-6.324h14.978c0.827,0,1.5-0.673,1.5-1.5s-0.673-1.5-1.5-1.5H34.974   v-1.821c0-3.705,5.965-6.834,13.025-6.834c7.06,0,13.024,3.129,13.024,6.834v36.115c0,3.704-5.965,6.833-13.024,6.833   c-7.06,0-13.025-3.129-13.025-6.833V49.128z"/>
    </g>
    <!--<text fill="#000000" font-family="'Helvetica Neue', Helvetica, Arial-Unicode, Arial, Sans-serif" font-size="5px" font-weight="bold" x="0" y="111">Created by studiographic</text>
    <text fill="#000000" font-family="'Helvetica Neue', Helvetica, Arial-Unicode, Arial, Sans-serif" font-size="5px" font-weight="bold" x="0" y="116">from the Noun Project</text>-->
</svg>