<svg enable-background="new 0 0 100 100" version="1.1" viewBox="0 0 100 125" x="0px" xml:space="preserve" xmlns="http://www.w3.org/2000/svg" xmlns:xlink="http://www.w3.org/1999/xlink" y="0px">
    <g display="none">
        <g display="inline">
            <path d="M86,25c3.85,0,7,3.15,7,7v42c0,3.85-3.15,7-7,7H14    c-3.85,0-7-3.15-7-7V32c0-3.85,3.15-7,7-7H86z" fill="#000000" stroke="#E00C02" stroke-miterlimit="10" stroke-width="4"/>
        </g>
        <g display="inline">
            <path d="M42.798,24.995l-3.684-9.21    C38.501,14.253,36.65,13,35,13H10c-1.65,0-3,1.35-3,3v23" fill="#000000" stroke="#E00C02" stroke-miterlimit="10" stroke-width="4"/>
        </g>
        <line display="inline" fill="#000000" stroke="#E00C02" stroke-miterlimit="10" stroke-width="4" x1="50" x2="50" y1="41" y2="65"/>
        <line display="inline" fill="#000000" stroke="#E00C02" stroke-miterlimit="10" stroke-width="4" x1="62" x2="38" y1="53" y2="53"/>
    </g>
    <g>
        <path d="M86,23H44.154l-3.184-7.958C40.049,12.738,37.481,11,35,11H10c-2.757,0-5,2.243-5,5v58c0,4.962,4.037,9,9,9h72   c4.963,0,9-4.038,9-9V32C95,27.038,90.963,23,86,23z M10,15h25c0.83,0,1.948,0.757,2.257,1.528L39.845,23H14   c-1.849,0-3.569,0.562-5,1.522V16C9,15.458,9.458,15,10,15z M91,74c0,2.757-2.243,5-5,5H14c-2.757,0-5-2.243-5-5V32   c0-2.757,2.243-5,5-5h72c2.757,0,5,2.243,5,5V74z M52,51h10v4H52v10h-4V55H38v-4h10V41h4V51z"/>
    </g>
    <!--<text fill="#000000" font-family="'Helvetica Neue', Helvetica, Arial-Unicode, Arial, Sans-serif" font-size="5px" font-weight="bold" x="0" y="115">Created by Yuri Mazursky</text>
    <text fill="#000000" font-family="'Helvetica Neue', Helvetica, Arial-Unicode, Arial, Sans-serif" font-size="5px" font-weight="bold" x="0" y="120">from the Noun Project</text>-->
</svg>