<svg style="enable-background:new 0 0 100 100;" version="1.1" viewBox="0 0 100 125" x="0px" xml:space="preserve" xmlns="http://www.w3.org/2000/svg" xmlns:xlink="http://www.w3.org/1999/xlink" y="0px">
    <g>
        <path d="M78,6.2H64H36H22c-4.1,0-7.5,3.4-7.5,7.5v72.6c0,4.1,3.4,7.5,7.5,7.5h56c4.1,0,7.5-3.4,7.5-7.5V13.7   C85.5,9.5,82.1,6.2,78,6.2z M34.6,16.2c0.6,3.4,3.5,6,7.1,6h16.7c3.6,0,6.5-2.6,7.1-6h10.7v67.7H23.9V16.2H34.6z M62.5,9.2V15   c0,2.3-1.9,4.2-4.2,4.2H41.7c-2.3,0-4.2-1.9-4.2-4.2V9.2H62.5z M82.5,86.3c0,2.5-2,4.5-4.5,4.5H22c-2.5,0-4.5-2-4.5-4.5V13.7   c0-2.5,2-4.5,4.5-4.5h12.5v4H22.4c-0.8,0-1.5,0.7-1.5,1.5v70.7c0,0.8,0.7,1.5,1.5,1.5h55.2c0.8,0,1.5-0.7,1.5-1.5V14.7   c0-0.8-0.7-1.5-1.5-1.5H65.5v-4H78c2.5,0,4.5,2,4.5,4.5V86.3z"/>
        <path d="M28.8,37.4h2.8c0.1,0,0.3-0.1,0.3-0.3v-2.8c0-0.1-0.1-0.3-0.3-0.3h-2.8c-0.1,0-0.3,0.1-0.3,0.3v2.8   C28.5,37.2,28.6,37.4,28.8,37.4z"/>
        <path d="M39.8,37.5H71c0.2,0,0.4-0.2,0.4-0.4v-2.8c0-0.2-0.2-0.4-0.4-0.4H39.8c-0.2,0-0.4,0.2-0.4,0.4v2.8   C39.4,37.3,39.5,37.5,39.8,37.5z"/>
        <path d="M28.9,46.8c-0.1,0-0.3,0.1-0.3,0.3v2.8c0,0.1,0.1,0.3,0.3,0.3h2.8c0.1,0,0.3-0.1,0.3-0.3V47c0-0.1-0.1-0.3-0.3-0.3H28.9z"/>
        <path d="M39.9,46.7c-0.2,0-0.4,0.2-0.4,0.4v2.8c0,0.2,0.2,0.4,0.4,0.4h31.3c0.2,0,0.4-0.2,0.4-0.4V47c0-0.2-0.2-0.4-0.4-0.4H39.9z"/>
        <path d="M29,59.6c-0.1,0-0.3,0.1-0.3,0.3v2.8c0,0.1,0.1,0.3,0.3,0.3h2.8c0.1,0,0.3-0.1,0.3-0.3v-2.8c0-0.1-0.1-0.3-0.3-0.3H29z"/>
        <path d="M40,59.4c-0.2,0-0.4,0.2-0.4,0.4v2.8c0,0.2,0.2,0.4,0.4,0.4h31.3c0.2,0,0.4-0.2,0.4-0.4v-2.8c0-0.2-0.2-0.4-0.4-0.4H40z"/>
    </g>
    <!--<text fill="#000000" font-family="'Helvetica Neue', Helvetica, Arial-Unicode, Arial, Sans-serif" font-size="5px" font-weight="bold" x="0" y="115">Created by Tomacon</text>
    <text fill="#000000" font-family="'Helvetica Neue', Helvetica, Arial-Unicode, Arial, Sans-serif" font-size="5px" font-weight="bold" x="0" y="120">from the Noun Project</text>-->
</svg>