<svg enable-background="new 0 0 100 100" version="1.1" viewBox="0 0 100 125" x="0px" xml:space="preserve" xmlns="http://www.w3.org/2000/svg" xmlns:xlink="http://www.w3.org/1999/xlink" y="0px">
    <g>
        <path d="M6.452,83.388h10.161v10.159c0,0.382,0.155,0.756,0.425,1.026c0.27,0.27,0.644,0.425,1.026,0.425h75.484   c0.382,0,0.756-0.155,1.026-0.425C94.845,94.304,95,93.93,95,93.548V18.064c0-0.382-0.155-0.756-0.425-1.027   c-0.27-0.27-0.644-0.425-1.026-0.425H83.387V6.453c0-0.382-0.155-0.756-0.425-1.027c-0.27-0.27-0.644-0.425-1.026-0.425H6.452   c-0.382,0-0.756,0.155-1.026,0.425C5.155,5.696,5,6.07,5,6.453v75.484c0,0.382,0.155,0.756,0.425,1.026   C5.696,83.233,6.07,83.388,6.452,83.388z M92.097,92.096H19.516V81.943l0.001-0.006l-0.001-0.006V19.515h62.399l0.021,0.002   l0.021-0.002h10.14L92.097,92.096z M7.903,7.904h72.581l0,8.708h-62.42c-0.382,0-0.756,0.155-1.026,0.425   c-0.27,0.27-0.425,0.644-0.425,1.027v62.421H7.903V7.904z"/>
        <path d="M76.354,37.399l-0.009-0.034l-0.04-0.154l-0.039-0.125l-0.064-0.132l-0.066-0.121l-0.084-0.11l-0.089-0.108l-0.103-0.092   l-0.107-0.088l-0.122-0.073l-0.12-0.065l-0.13-0.047l-0.139-0.043l-0.13-0.02l-0.158-0.016l-0.035-0.004l-0.109,0.011l-0.111,0.006   l-27.825,4.274l-0.034,0.009l-0.152,0.039l-0.127,0.039l-0.13,0.064l-0.122,0.066l-0.109,0.083l-0.109,0.09l-0.091,0.103   l-0.089,0.108l-0.072,0.12l-0.066,0.122l-0.046,0.129l-0.044,0.14l-0.019,0.13l-0.016,0.158l-0.004,0.035v23.864   c-1.353-1.101-3.077-1.763-4.958-1.764c-4.342,0.001-7.861,3.519-7.861,7.861c0.001,4.342,3.519,7.861,7.861,7.861   c4.342-0.001,7.86-3.518,7.861-7.86l0-0.001V43.139l24.922-3.828v22.173c-1.353-1.101-3.077-1.763-4.958-1.764   c-4.342,0.001-7.861,3.519-7.861,7.861c0.001,4.342,3.519,7.86,7.861,7.861c4.342-0.001,7.86-3.519,7.861-7.86l0-0.001V37.62   l-0.011-0.111L76.354,37.399z M44.19,75.361c-0.902,0.899-2.132,1.451-3.506,1.452c-1.374-0.001-2.604-0.553-3.506-1.452   c-0.9-0.902-1.451-2.132-1.452-3.506c0.001-1.374,0.553-2.604,1.452-3.506c0.902-0.899,2.132-1.451,3.506-1.452   c1.374,0.001,2.604,0.553,3.506,1.452c0.9,0.902,1.451,2.132,1.452,3.506C45.641,73.229,45.089,74.459,44.19,75.361z    M72.015,71.088c-0.902,0.899-2.132,1.451-3.506,1.452c-1.374-0.001-2.604-0.553-3.506-1.452c-0.9-0.902-1.451-2.132-1.452-3.506   c0.001-1.374,0.553-2.604,1.452-3.506c0.902-0.899,2.132-1.451,3.506-1.452c1.374,0.001,2.604,0.553,3.506,1.452   c0.9,0.902,1.451,2.132,1.452,3.506C73.467,68.955,72.915,70.185,72.015,71.088z"/>
    </g>
    <!--<text fill="#000000" font-family="'Helvetica Neue', Helvetica, Arial-Unicode, Arial, Sans-serif" font-size="5px" font-weight="bold" x="0" y="115">Created by Viktor Ostrovsky</text>
    <text fill="#000000" font-family="'Helvetica Neue', Helvetica, Arial-Unicode, Arial, Sans-serif" font-size="5px" font-weight="bold" x="0" y="120">from the Noun Project</text>-->
</svg>