<svg enable-background="new 0 0 100 100" version="1.1" viewBox="0 0 100 125" x="0px" xml:space="preserve" xmlns="http://www.w3.org/2000/svg" xmlns:xlink="http://www.w3.org/1999/xlink" y="0px">
    <path d="M88.6,48.3c-0.7-0.8-17.4-19.7-38.5-19.7c-21.1,0-37.8,18.9-38.5,19.7c-0.7,0.8-0.7,1.9,0,2.6c0.7,0.8,17.4,19.7,38.5,19.7  c21.1,0,37.8-18.9,38.5-19.7C89.3,50.2,89.3,49.1,88.6,48.3z M50.1,66.6c-16.2,0-30.1-12.8-34.2-17c4.1-4.2,18-17,34.2-17  c16.2,0,30.1,12.8,34.2,17C80.2,53.8,66.3,66.6,50.1,66.6z M56.8,49.6c0,3.7-3,6.7-6.7,6.7c-3.7,0-6.7-3-6.7-6.7s3-6.7,6.7-6.7  C53.8,43,56.8,46,56.8,49.6z M50.1,35.4c-7.8,0-14.1,6.3-14.1,14.1s6.3,14.1,14.1,14.1s14.1-6.3,14.1-14.1S57.9,35.4,50.1,35.4z   M50.1,59.6c-5.6,0-10.1-4.5-10.1-10.1s4.5-10.1,10.1-10.1s10.1,4.5,10.1,10.1S55.7,59.6,50.1,59.6z"/>
    <!--<text fill="#000000" font-family="'Helvetica Neue', Helvetica, Arial-Unicode, Arial, Sans-serif" font-size="5px" font-weight="bold" x="0" y="115">Created by rohit k</text>
    <text fill="#000000" font-family="'Helvetica Neue', Helvetica, Arial-Unicode, Arial, Sans-serif" font-size="5px" font-weight="bold" x="0" y="120">from the Noun Project</text>-->
</svg>