<svg version="1.1" viewBox="0 0 100 125" x="0px" xmlns="http://www.w3.org/2000/svg" xmlns:cc="http://creativecommons.org/ns#" xmlns:dc="http://purl.org/dc/elements/1.1/" xmlns:inkscape="http://www.inkscape.org/namespaces/inkscape" xmlns:rdf="http://www.w3.org/1999/02/22-rdf-syntax-ns#" xmlns:sodipodi="http://sodipodi.sourceforge.net/DTD/sodipodi-0.dtd" xmlns:svg="http://www.w3.org/2000/svg" y="0px">
    <g transform="translate(0,-952.36218)">
        <path d="M 24.8125,981.36659 A 2.0021961,2.0019857 0 1 0 25,985.36617 l 3,0 0,6.99927 -20,0 a 2.0001998,1.9999897 0 0 0 -0.1875,0 A 2.0001998,1.9999897 0 0 0 6,994.36523 l 0,15.99827 a 2.0001998,1.9999897 0 0 0 2,1.9998 l 20,0 0,6.9993 -3,0 a 2.0001998,1.9999897 0 0 0 -0.1875,0 2.0021961,2.0019857 0 1 0 0.1875,3.9996 l 10,0 a 2.0001998,1.9999897 0 1 0 0,-3.9996 l -3,0 0,-6.9993 60,0 a 2.0001998,1.9999897 0 0 0 2,-1.9998 l 0,-15.99827 a 2.0001998,1.9999897 0 0 0 -2,-1.99979 l -60,0 0,-6.99927 3,0 a 2.0001998,1.9999897 0 1 0 0,-3.99958 l -10,0 a 2.0001998,1.9999897 0 0 0 -0.1875,0 z M 10,996.36502 l 18,0 0,11.99878 -18,0 0,-11.99878 z m 22,0 58,0 0,11.99878 -58,0 0,-11.99878 z m -16.1875,3.99958 A 2.0021961,2.0019857 0 1 0 16,1004.3642 l 6,0 a 2.0001998,1.9999897 0 1 0 0,-3.9996 l -6,0 a 2.0001998,1.9999897 0 0 0 -0.1875,0 z" display="inline" fill="#000000" fill-opacity="1" marker="none" overflow="visible" stroke="none" style="text-indent:0;text-transform:none;direction:ltr;block-progression:tb;baseline-shift:baseline;color:#000000;enable-background:accumulate;" visibility="visible"/>
    </g>
    <!--<text fill="#000000" font-family="'Helvetica Neue', Helvetica, Arial-Unicode, Arial, Sans-serif" font-size="5px" font-weight="bold" x="0" y="115">Created by Jaohuarye</text>
    <text fill="#000000" font-family="'Helvetica Neue', Helvetica, Arial-Unicode, Arial, Sans-serif" font-size="5px" font-weight="bold" x="0" y="120">from the Noun Project</text>-->
</svg>