<svg viewBox="0 0 66 82.5" x="0px" xmlns="http://www.w3.org/2000/svg" y="0px">
    <path d="M121.292893,362.707107 L115.328732,356.742945 C113.604861,358.153635 111.40127,359 109,359 C103.477153,359 99,354.522847 99,349 C99,343.477153 103.477153,339 109,339 C114.522847,339 119,343.477153 119,349 C119,351.40127 118.153635,353.604861 116.742945,355.328732 L122.707107,361.292893 C123.649916,362.235702 122.235702,363.649916 121.292893,362.707107 Z M109,357 C113.418278,357 117,353.418278 117,349 C117,344.581722 113.418278,341 109,341 C104.581722,341 101,344.581722 101,349 C101,353.418278 104.581722,357 109,357 Z M87,341 C79.2680135,341 73,334.731986 73,327 C73,319.268014 79.2680135,313 87,313 C94.7319865,313 101,319.268014 101,327 C101,334.731986 94.7319865,341 87,341 Z M87,339 C93.627417,339 99,333.627417 99,327 C99,320.372583 93.627417,315 87,315 C80.372583,315 75,320.372583 75,327 C75,333.627417 80.372583,339 87,339 Z M87,333 C83.6862915,333 81,330.313708 81,327 C81,323.686292 83.6862915,321 87,321 C90.3137085,321 93,323.686292 93,327 C93,330.313708 90.3137085,333 87,333 Z M87,331 C89.209139,331 91,329.209139 91,327 C91,324.790861 89.209139,323 87,323 C84.790861,323 83,324.790861 83,327 C83,329.209139 84.790861,331 87,331 Z M116.357342,333.204902 C116.243663,333.745361 115.713379,334.091334 115.172921,333.977654 C114.632462,333.863975 114.286489,333.333691 114.400169,332.793233 C114.797773,330.902927 115,328.964839 115,327 C115,311.536027 102.463973,299 87,299 C71.536027,299 59,311.536027 59,327 C59,342.463973 71.536027,355 87,355 C88.9662876,355 90.9057829,354.797475 92.7974075,354.39929 C93.3378486,354.285528 93.8681852,354.63142 93.9819475,355.171861 C94.0957097,355.712302 93.7498181,356.242638 93.209377,356.356401 C91.1824861,356.783059 89.1049331,357 87,357 C70.4314575,357 57,343.568542 57,327 C57,310.431458 70.4314575,297 87,297 C103.568542,297 117,310.431458 117,327 C117,329.103381 116.783379,331.179425 116.357342,333.204902 Z M66.6696132,335.421232 C66.4580676,334.911069 66.7001454,334.326008 67.210309,334.114462 C67.7204726,333.902916 68.3055335,334.144994 68.5170791,334.655158 C69.5230503,337.08116 71.0010987,339.28537 72.8578644,341.142136 C74.7146301,342.998901 76.9188402,344.47695 79.3448421,345.482921 C79.8550058,345.694467 80.0970835,346.279527 79.8855379,346.789691 C79.6739924,347.299855 79.0889315,347.541932 78.5787679,347.330387 C75.9094739,346.223532 73.4852593,344.597958 71.4436508,342.556349 C69.4020423,340.514741 67.7764685,338.090526 66.6696132,335.421232 Z M107.330387,318.578768 C107.541932,319.088931 107.299855,319.673992 106.789691,319.885538 C106.279527,320.097084 105.694467,319.855006 105.482921,319.344842 C104.47695,316.91884 102.998901,314.71463 101.142136,312.857864 C99.2853699,311.001099 97.0811598,309.52305 94.6551579,308.517079 C94.1449942,308.305533 93.9029165,307.720473 94.1144621,307.210309 C94.3260076,306.700145 94.9110685,306.458068 95.4212321,306.669613 C98.0905261,307.776468 100.514741,309.402042 102.556349,311.443651 C104.597958,313.485259 106.223532,315.909474 107.330387,318.578768 Z" fill="#000000" fill-rule="evenodd" transform="translate(-57 -297)"/>
    <!--<text fill="#000000" font-family="'Helvetica Neue', Helvetica, Arial-Unicode, Arial, Sans-serif" font-size="5px" font-weight="bold" x="0" y="81">Created by Andrejs Kirma</text>
    <text fill="#000000" font-family="'Helvetica Neue', Helvetica, Arial-Unicode, Arial, Sans-serif" font-size="5px" font-weight="bold" x="0" y="86">from the Noun Project</text>-->
</svg>