<svg enable-background="new 0 0 20 20" version="1.1" viewBox="0 0 20 25" x="0px" xml:space="preserve" xmlns="http://www.w3.org/2000/svg" xmlns:xlink="http://www.w3.org/1999/xlink" y="0px">
    <path d="M17.5,12.1C17.3,11.9,17,12,17,12.3V14h-2.6l-4-4l4-4H17v1.7c0,0.3,0.3,0.4,0.5,0.2l2.4-2.7  c0.1-0.1,0.1-0.3,0-0.4l-2.4-2.7C17.3,1.9,17,2,17,2.3V4h-3c-0.3,0-0.5,0.1-0.7,0.3L9,8.6L4.7,4.3C4.5,4.1,4.3,4,4,4H0.4  C0.2,4,0,4.2,0,4.4v1.2C0,5.8,0.2,6,0.4,6h3.2l4,4l-4,4H0.4C0.2,14,0,14.2,0,14.4v1.2C0,15.8,0.2,16,0.4,16H4c0.3,0,0.5-0.1,0.7-0.3  L9,11.4l4.3,4.3c0.2,0.2,0.4,0.3,0.7,0.3h3v1.7c0,0.3,0.3,0.4,0.5,0.2l2.4-2.7c0.1-0.1,0.1-0.3,0-0.4L17.5,12.1z" fill="#000000"/>
    <!--<text fill="#000000" font-family="'Helvetica Neue', Helvetica, Arial-Unicode, Arial, Sans-serif" font-size="5px" font-weight="bold" x="0" y="35">Created by ProSymbols</text>
    <text fill="#000000" font-family="'Helvetica Neue', Helvetica, Arial-Unicode, Arial, Sans-serif" font-size="5px" font-weight="bold" x="0" y="40">from the Noun Project</text>-->
</svg>