<svg enable-background="new 0 0 100 100" version="1.1" viewBox="0 0 100 125" x="0px" xml:space="preserve" xmlns="http://www.w3.org/2000/svg" xmlns:xlink="http://www.w3.org/1999/xlink" y="0px">
    <g>
        <path d="M13.727,66.205h15.656l21.361,19.04c0.428,0.382,1.036,0.476,1.56,0.241c0.523-0.235,0.858-0.751,0.858-1.325V15.839   c0-0.574-0.334-1.09-0.858-1.325c-0.523-0.235-1.131-0.141-1.56,0.241l-21.36,19.04H13.727c-0.382,0-0.756,0.155-1.026,0.425   c-0.27,0.27-0.425,0.644-0.425,1.026v29.507c0,0.382,0.155,0.756,0.425,1.026C12.971,66.05,13.345,66.205,13.727,66.205z    M15.179,36.698l14.758,0c0.354,0,0.702-0.133,0.966-0.368l19.356-17.253v61.846L30.902,63.67   c-0.264-0.235-0.612-0.368-0.966-0.368H15.179V36.698z"/>
        <path d="M65.432,62.653c-0.562,0.572-0.554,1.491,0.018,2.053c0.572,0.562,1.491,0.554,2.053-0.017   c3.694-3.757,5.98-8.964,5.98-14.689c0-5.725-2.286-10.933-5.98-14.689c-0.562-0.572-1.481-0.58-2.053-0.018   c-0.572,0.562-0.58,1.481-0.017,2.053l0,0c3.176,3.232,5.147,7.708,5.147,12.654C70.578,54.946,68.608,59.421,65.432,62.653z"/>
        <path d="M75.52,74.951c0.572,0.562,1.491,0.554,2.053-0.017C83.846,68.553,87.725,59.73,87.724,50   c0.001-9.73-3.878-18.553-10.152-24.934c-0.562-0.572-1.481-0.58-2.053-0.018c-0.572,0.562-0.58,1.481-0.018,2.053v0   C81.259,32.96,84.821,41.047,84.821,50c-0.001,8.953-3.562,17.04-9.319,22.899C74.94,73.47,74.948,74.389,75.52,74.951z"/>
    </g>
    <!--<text fill="#000000" font-family="'Helvetica Neue', Helvetica, Arial-Unicode, Arial, Sans-serif" font-size="5px" font-weight="bold" x="0" y="115">Created by Viktor Ostrovsky</text>
    <text fill="#000000" font-family="'Helvetica Neue', Helvetica, Arial-Unicode, Arial, Sans-serif" font-size="5px" font-weight="bold" x="0" y="120">from the Noun Project</text>-->
</svg>